<svg width="16" height="13" viewBox="0 0 16 13" fill="none" xmlns="http://www.w3.org/2000/svg">
<path fill-rule="evenodd" clip-rule="evenodd" d="M8 12.253C8.32187 12.253 8.63125 12.1439 8.86563 11.948L14.5125 7.22697C15.4625 6.43501 16 5.32401 16 4.16265V4.00034C16 2.04421 14.4219 0.375768 12.2687 0.054504C10.8437 -0.1579 9.39375 0.257952 8.34687 1.17165L8 1.50691L7.625 1.17165C6.60625 0.257952 5.12812 -0.1579 3.73125 0.054504C1.57875 0.375768 0 2.04421 0 4.00034V4.16265C0 5.32401 0.538438 6.43501 1.48719 7.22697L7.13437 11.948C7.36875 12.1439 7.67812 12.253 8 12.253ZM1 4.00043C1 2.61875 2.1336 1.30413 3.87887 1.04364L3.88158 1.04323C5.00087 0.873038 6.17417 1.2138 6.95732 1.91619L8.02653 2.87209L9.02243 1.90955C9.83981 1.20584 10.9847 0.874287 12.1213 1.04367C13.867 1.3042 15 2.61867 15 4.00043V4.16274C15 5.00761 14.6099 5.84395 13.8722 6.45896L8.22422 11.1809C8.1796 11.2181 8.10059 11.2531 8 11.2531C7.8994 11.2531 7.82029 11.218 7.77568 11.1808L2.12801 6.45938C1.39072 5.84393 1 5.00721 1 4.16274V4.00043Z" fill="#D1B4FF"/>
</svg>
