<svg width="24" height="24" viewBox="0 0 24 24" fill="none" xmlns="http://www.w3.org/2000/svg">
<path d="M11.3999 7.79999C11.3999 7.64086 11.3367 7.48825 11.2242 7.37573C11.1116 7.26321 10.959 7.19999 10.7999 7.19999C10.6408 7.19999 10.4882 7.26321 10.3756 7.37573C10.2631 7.48825 10.1999 7.64086 10.1999 7.79999V10.2H7.7999C7.64077 10.2 7.48816 10.2632 7.37564 10.3757C7.26312 10.4883 7.1999 10.6409 7.1999 10.8C7.1999 10.9591 7.26312 11.1117 7.37564 11.2243C7.48816 11.3368 7.64077 11.4 7.7999 11.4H10.1999V13.8C10.1999 13.9591 10.2631 14.1117 10.3756 14.2243C10.4882 14.3368 10.6408 14.4 10.7999 14.4C10.959 14.4 11.1116 14.3368 11.2242 14.2243C11.3367 14.1117 11.3999 13.9591 11.3999 13.8V11.4H13.7999C13.959 11.4 14.1116 11.3368 14.2242 11.2243C14.3367 11.1117 14.3999 10.9591 14.3999 10.8C14.3999 10.6409 14.3367 10.4883 14.2242 10.3757C14.1116 10.2632 13.959 10.2 13.7999 10.2H11.3999V7.79999ZM5.3999 2.39999C4.60425 2.39999 3.84119 2.71606 3.27858 3.27867C2.71597 3.84128 2.3999 4.60434 2.3999 5.39999V16.2C2.3999 16.9956 2.71597 17.7587 3.27858 18.3213C3.84119 18.8839 4.60425 19.2 5.3999 19.2H16.1999C16.9956 19.2 17.7586 18.8839 18.3212 18.3213C18.8838 17.7587 19.1999 16.9956 19.1999 16.2V5.39999C19.1999 4.60434 18.8838 3.84128 18.3212 3.27867C17.7586 2.71606 16.9956 2.39999 16.1999 2.39999H5.3999ZM3.5999 5.39999C3.5999 4.9226 3.78954 4.46477 4.12711 4.1272C4.46468 3.78964 4.92251 3.59999 5.3999 3.59999H16.1999C16.6773 3.59999 17.1351 3.78964 17.4727 4.1272C17.8103 4.46477 17.9999 4.9226 17.9999 5.39999V16.2C17.9999 16.6774 17.8103 17.1352 17.4727 17.4728C17.1351 17.8104 16.6773 18 16.1999 18H5.3999C4.92251 18 4.46468 17.8104 4.12711 17.4728C3.78954 17.1352 3.5999 16.6774 3.5999 16.2V5.39999ZM8.9999 21.6C7.90035 21.6016 6.84431 21.1705 6.0599 20.4H17.3999C18.1956 20.4 18.9586 20.0839 19.5212 19.5213C20.0838 18.9587 20.3999 18.1956 20.3999 17.4V6.05999C21.1427 6.81839 21.5999 7.85519 21.5999 8.99999V17.4C21.5999 18.5139 21.1574 19.5822 20.3698 20.3698C19.5821 21.1575 18.5138 21.6 17.3999 21.6H8.9999Z" fill="#9A9A9A"/>
</svg>
