<svg width="25" height="26" viewBox="0 0 25 26" fill="none" xmlns="http://www.w3.org/2000/svg">
<path d="M24.8335 6.85421C24.8335 10.5245 21.9606 13.5 18.4168 13.5C14.8731 13.5 12.0002 10.5245 12.0002 6.85421C12.0002 3.1839 14.8731 0.208374 18.4168 0.208374C21.9606 0.208374 24.8335 3.1839 24.8335 6.85421ZM19.0002 2.62504C19.0002 2.46481 18.9387 2.31113 18.8293 2.19783C18.7199 2.08453 18.5715 2.02087 18.4168 2.02087C18.2621 2.02087 18.1137 2.08453 18.0043 2.19783C17.895 2.31113 17.8335 2.46481 17.8335 2.62504V6.25004H14.3335C14.1788 6.25004 14.0304 6.31369 13.921 6.427C13.8116 6.5403 13.7502 6.69397 13.7502 6.85421C13.7502 7.01444 13.8116 7.16811 13.921 7.28142C14.0304 7.39472 14.1788 7.45837 14.3335 7.45837H17.8335V11.0834C17.8335 11.2436 17.895 11.3973 18.0043 11.5106C18.1137 11.6239 18.2621 11.6875 18.4168 11.6875C18.5715 11.6875 18.7199 11.6239 18.8293 11.5106C18.9387 11.3973 19.0002 11.2436 19.0002 11.0834V7.45837H22.5002C22.6549 7.45837 22.8032 7.39472 22.9126 7.28142C23.022 7.16811 23.0835 7.01444 23.0835 6.85421C23.0835 6.69397 23.022 6.5403 22.9126 6.427C22.8032 6.31369 22.6549 6.25004 22.5002 6.25004H19.0002V2.62504ZM22.2085 16.3698V13.6571C22.7368 13.3405 23.2265 12.9591 23.6668 12.5213V16.3698C23.6668 17.5315 23.2213 18.6457 22.4281 19.4671C21.635 20.2886 20.5593 20.75 19.4377 20.75H13.3984L7.06925 25.3768C6.20008 26.0123 5.00016 25.3683 5.00016 24.2663V20.75H4.56266C3.44102 20.75 2.36531 20.2886 1.57219 19.4671C0.779068 18.6457 0.333496 17.5315 0.333496 16.3698V7.00525C0.333496 5.84355 0.779068 4.72942 1.57219 3.90797C2.36531 3.08653 3.44102 2.62504 4.56266 2.62504H12.0258C11.7342 3.09629 11.4897 3.60258 11.3002 4.13546H4.56266C3.82779 4.13546 3.12302 4.43781 2.60339 4.976C2.08376 5.51419 1.79183 6.24413 1.79183 7.00525V16.3698C1.79183 17.1309 2.08376 17.8609 2.60339 18.3991C3.12302 18.9373 3.82779 19.2396 4.56266 19.2396H6.4585V23.9751L12.9352 19.2396H19.4377C20.1725 19.2396 20.8773 18.9373 21.3969 18.3991C21.9166 17.8609 22.2085 17.1309 22.2085 16.3698Z" fill="#D9D9D9"/>
</svg>
