<svg width="22" height="17" viewBox="0 0 22 17" fill="none" xmlns="http://www.w3.org/2000/svg">
<path fill-rule="evenodd" clip-rule="evenodd" d="M15.2539 1.54545H21.2143L22 2.31818V16.2273L21.2143 17H0.785714L0 16.2273V2.31818L0.785714 1.54545H6.74614L8.08657 0.225636L8.64286 0H13.3571L13.9134 0.225636L15.2539 1.54545V1.54545ZM1.57143 15.4545H20.4286V3.09091H14.9286L14.3723 2.86527L13.0319 1.54545H8.96814L7.62771 2.86527L7.07143 3.09091H1.57143V15.4545ZM3.92857 4.63636C3.72019 4.63636 3.52034 4.71778 3.37299 4.86269C3.22564 5.0076 3.14286 5.20415 3.14286 5.40909C3.14286 5.61403 3.22564 5.81058 3.37299 5.95549C3.52034 6.10041 3.72019 6.18182 3.92857 6.18182C4.13696 6.18182 4.33681 6.10041 4.48416 5.95549C4.63151 5.81058 4.71429 5.61403 4.71429 5.40909C4.71429 5.20415 4.63151 5.0076 4.48416 4.86269C4.33681 4.71778 4.13696 4.63636 3.92857 4.63636ZM11 6.18182C11.8335 6.18182 12.6329 6.50747 13.2223 7.08712C13.8117 7.66678 14.1429 8.45297 14.1429 9.27273C14.1429 10.0925 13.8117 10.8787 13.2223 11.4583C12.6329 12.038 11.8335 12.3636 11 12.3636C10.1665 12.3636 9.36706 12.038 8.77766 11.4583C8.18826 10.8787 7.85714 10.0925 7.85714 9.27273C7.85714 8.45297 8.18826 7.66678 8.77766 7.08712C9.36706 6.50747 10.1665 6.18182 11 6.18182V6.18182ZM11 4.63636C9.74969 4.63636 8.5506 5.12484 7.6665 5.99432C6.7824 6.86381 6.28571 8.04309 6.28571 9.27273C6.28571 10.5024 6.7824 11.6816 7.6665 12.5511C8.5506 13.4206 9.74969 13.9091 11 13.9091C12.2503 13.9091 13.4494 13.4206 14.3335 12.5511C15.2176 11.6816 15.7143 10.5024 15.7143 9.27273C15.7143 8.04309 15.2176 6.86381 14.3335 5.99432C13.4494 5.12484 12.2503 4.63636 11 4.63636Z" fill="#6A6A6A"/>
</svg>
