<svg width="27" height="21" viewBox="0 0 27 21" fill="none" xmlns="http://www.w3.org/2000/svg">
<path fill-rule="evenodd" clip-rule="evenodd" d="M18.6861 2.52065H25.6529L26.5712 3.42384V19.6812L25.6529 20.5844H1.7753L0.856934 19.6812V3.42384L1.7753 2.52065H8.74204L10.3088 0.97801L10.959 0.714279H16.4692L17.1194 0.97801L18.6861 2.52065ZM2.69367 18.778H24.7345V4.32703H18.3059L17.6557 4.0633L16.089 2.52065H11.3392L9.77244 4.0633L9.12224 4.32703H2.69367V18.778ZM5.44877 6.13341C5.2052 6.13341 4.97161 6.22856 4.79939 6.39794C4.62716 6.56732 4.5304 6.79705 4.5304 7.03659C4.5304 7.27613 4.62716 7.50586 4.79939 7.67524C4.97161 7.84462 5.2052 7.93978 5.44877 7.93978C5.69234 7.93978 5.92593 7.84462 6.09815 7.67524C6.27038 7.50586 6.36714 7.27613 6.36714 7.03659C6.36714 6.79705 6.27038 6.56732 6.09815 6.39794C5.92593 6.22856 5.69234 6.13341 5.44877 6.13341ZM13.7141 7.93978C14.6883 7.93978 15.6227 8.32041 16.3116 8.99793C17.0005 9.67545 17.3875 10.5944 17.3875 11.5525C17.3875 12.5107 17.0005 13.4296 16.3116 14.1071C15.6227 14.7847 14.6883 15.1653 13.7141 15.1653C12.7398 15.1653 11.8055 14.7847 11.1165 14.1071C10.4276 13.4296 10.0406 12.5107 10.0406 11.5525C10.0406 10.5944 10.4276 9.67545 11.1165 8.99793C11.8055 8.32041 12.7398 7.93978 13.7141 7.93978ZM13.7141 6.13341C12.2527 6.13341 10.8511 6.70435 9.81777 7.72063C8.78441 8.73691 8.20387 10.1153 8.20387 11.5525C8.20387 12.9898 8.78441 14.3682 9.81777 15.3844C10.8511 16.4007 12.2527 16.9717 13.7141 16.9717C15.1755 16.9717 16.577 16.4007 17.6104 15.3844C18.6437 14.3682 19.2243 12.9898 19.2243 11.5525C19.2243 10.1153 18.6437 8.73691 17.6104 7.72063C16.577 6.70435 15.1755 6.13341 13.7141 6.13341Z" fill="white"/>
</svg>
