<svg width="28" height="29" viewBox="0 0 28 29" fill="none" xmlns="http://www.w3.org/2000/svg">
<path d="M26.5998 7.97501C26.5998 9.70555 25.9361 11.3652 24.7546 12.5889C23.5731 13.8126 21.9707 14.5 20.2998 14.5C18.6289 14.5 17.0265 13.8126 15.845 12.5889C14.6636 11.3652 13.9998 9.70555 13.9998 7.97501C13.9998 6.24447 14.6636 4.58482 15.845 3.36114C17.0265 2.13747 18.6289 1.45001 20.2998 1.45001C21.9707 1.45001 23.5731 2.13747 24.7546 3.36114C25.9361 4.58482 26.5998 6.24447 26.5998 7.97501ZM22.6042 5.28671L18.8998 9.12486L17.9954 8.18671C17.864 8.05058 17.6857 7.9741 17.4998 7.9741C17.3139 7.9741 17.1356 8.05058 17.0042 8.18671C16.8728 8.32285 16.7989 8.50749 16.7989 8.70001C16.7989 8.89254 16.8728 9.07718 17.0042 9.21331L18.4042 10.6633C18.4692 10.7308 18.5465 10.7844 18.6315 10.8209C18.7166 10.8575 18.8077 10.8763 18.8998 10.8763C18.9919 10.8763 19.083 10.8575 19.1681 10.8209C19.2531 10.7844 19.3304 10.7308 19.3954 10.6633L23.5954 6.31331C23.7268 6.17718 23.8007 5.99254 23.8007 5.80001C23.8007 5.60749 23.7268 5.42285 23.5954 5.28671C23.464 5.15058 23.2857 5.0741 23.0998 5.0741C22.9139 5.0741 22.7356 5.15058 22.6042 5.28671ZM23.7998 17.8002V15.08C24.2985 14.8161 24.7679 14.4966 25.1998 14.1274V17.8002C25.1998 19.8563 23.5702 21.5209 21.5598 21.5209H15.1338L9.5184 25.8144C9.22037 26.0419 8.848 26.1392 8.48144 26.0852C8.11487 26.0312 7.78341 25.8304 7.55841 25.5258C7.37803 25.2797 7.2802 24.9793 7.2798 24.6703V21.5209H6.4398C4.4294 21.5209 2.7998 19.8549 2.7998 17.8002V8.07071C2.7998 6.01606 4.4294 4.35001 6.4398 4.35001H13.4398C13.2108 4.81345 13.0266 5.29913 12.8896 5.80001H6.4398C5.1854 5.80001 4.1998 6.83386 4.1998 8.07071V17.8002C4.1998 19.0371 5.1854 20.0709 6.4398 20.0709H8.6798V24.65H8.68401L8.6868 24.6486L14.6732 20.0709H21.5598C22.8142 20.0709 23.7998 19.0371 23.7998 17.8002Z" fill="white"/>
</svg>
