<svg width="50" height="50" viewBox="0 0 50 50" fill="none" xmlns="http://www.w3.org/2000/svg">
<circle cx="25" cy="25" r="25" fill="#9C5EFF"/>
<path d="M37.5998 18.975C37.5998 20.7055 36.9361 22.3652 35.7546 23.5889C34.5731 24.8126 32.9707 25.5 31.2998 25.5C29.6289 25.5 28.0265 24.8126 26.845 23.5889C25.6636 22.3652 24.9998 20.7055 24.9998 18.975C24.9998 17.2445 25.6636 15.5848 26.845 14.3611C28.0265 13.1375 29.6289 12.45 31.2998 12.45C32.9707 12.45 34.5731 13.1375 35.7546 14.3611C36.9361 15.5848 37.5998 17.2445 37.5998 18.975ZM33.6042 16.2867L29.8998 20.1249L28.9954 19.1867C28.864 19.0506 28.6857 18.9741 28.4998 18.9741C28.3139 18.9741 28.1356 19.0506 28.0042 19.1867C27.8728 19.3228 27.7989 19.5075 27.7989 19.7C27.7989 19.8925 27.8728 20.0772 28.0042 20.2133L29.4042 21.6633C29.4692 21.7308 29.5465 21.7844 29.6315 21.8209C29.7166 21.8575 29.8077 21.8763 29.8998 21.8763C29.9919 21.8763 30.083 21.8575 30.1681 21.8209C30.2531 21.7844 30.3304 21.7308 30.3954 21.6633L34.5954 17.3133C34.7268 17.1772 34.8007 16.9925 34.8007 16.8C34.8007 16.6075 34.7268 16.4228 34.5954 16.2867C34.464 16.1506 34.2857 16.0741 34.0998 16.0741C33.9139 16.0741 33.7356 16.1506 33.6042 16.2867ZM34.7998 28.8002V26.08C35.2985 25.8161 35.7679 25.4966 36.1998 25.1274V28.8002C36.1998 30.8563 34.5702 32.5209 32.5598 32.5209H26.1338L20.5184 36.8144C20.2204 37.0419 19.848 37.1392 19.4814 37.0852C19.1149 37.0312 18.7834 36.8304 18.5584 36.5258C18.378 36.2797 18.2802 35.9793 18.2798 35.6703V32.5209H17.4398C15.4294 32.5209 13.7998 30.8549 13.7998 28.8002V19.0707C13.7998 17.0161 15.4294 15.35 17.4398 15.35H24.4398C24.2108 15.8134 24.0266 16.2991 23.8896 16.8H17.4398C16.1854 16.8 15.1998 17.8339 15.1998 19.0707V28.8002C15.1998 30.0371 16.1854 31.0709 17.4398 31.0709H19.6798V35.65H19.684L19.6868 35.6486L25.6732 31.0709H32.5598C33.8142 31.0709 34.7998 30.0371 34.7998 28.8002Z" fill="white"/>
</svg>
