<svg width="16" height="13" viewBox="0 0 16 13" fill="none" xmlns="http://www.w3.org/2000/svg">
<path fill-rule="evenodd" clip-rule="evenodd" d="M8.86563 11.948C8.63125 12.1439 8.32187 12.253 8 12.253C7.67812 12.253 7.36875 12.1439 7.13437 11.948L1.48719 7.22697C0.538438 6.43501 0 5.32402 0 4.16265V4.00034C0 2.04421 1.57875 0.375769 3.73125 0.0545049C5.12812 -0.157899 6.60625 0.257953 7.625 1.17165L8 1.50691L8.34687 1.17165C9.39375 0.257953 10.8437 -0.157899 12.2687 0.0545049C14.4219 0.375769 16 2.04421 16 4.00034V4.16265C16 5.32402 15.4625 6.43501 14.5125 7.22697L8.86563 11.948Z" fill="#9C5EFF"/>
</svg>
