<svg width="16" height="14" viewBox="0 0 16 14" fill="none" xmlns="http://www.w3.org/2000/svg">
<path d="M0 4.64835V4.4671C0 2.28273 1.57875 0.419602 3.73125 0.0608521C5.12813 -0.176335 6.60625 0.288039 7.625 1.30835L8 1.68273L8.34688 1.30835C9.39375 0.288039 10.8438 -0.176335 12.2688 0.0608521C14.4219 0.419602 16 2.28273 16 4.4671V4.64835C16 5.94523 15.4625 7.18585 14.5125 8.07023L8.86563 13.3421C8.63125 13.5609 8.32187 13.6827 8 13.6827C7.67812 13.6827 7.36875 13.5609 7.13438 13.3421L1.48719 8.07023C0.538437 7.18585 0 5.94523 0 4.64835Z" fill="#9C5EFF"/>
</svg>
