<svg width="16" height="16" viewBox="0 0 16 16" fill="none" xmlns="http://www.w3.org/2000/svg">
<g clip-path="url(#clip0_48_540)">
<path fill-rule="evenodd" clip-rule="evenodd" d="M14.854 11.146C14.9006 11.1924 14.9375 11.2476 14.9627 11.3083C14.9879 11.3691 15.0009 11.4342 15.0009 11.5C15.0009 11.5657 14.9879 11.6309 14.9627 11.6916C14.9375 11.7524 14.9006 11.8075 14.854 11.854L10.854 15.854C10.7601 15.9479 10.6328 16.0006 10.5 16.0006C10.3672 16.0006 10.2399 15.9479 10.146 15.854C10.0521 15.7601 9.99937 15.6328 9.99937 15.5C9.99937 15.3672 10.0521 15.2399 10.146 15.146L13.293 12L3.5 12C2.83696 12 2.20107 11.7366 1.73223 11.2677C1.26339 10.7989 1 10.163 1 9.49998L0.999999 1.49998C0.999999 1.36737 1.05268 1.24019 1.14645 1.14643C1.24021 1.05266 1.36739 0.999979 1.5 0.999979C1.63261 0.999979 1.75978 1.05266 1.85355 1.14643C1.94732 1.24019 2 1.36737 2 1.49998L2 9.49998C2 9.8978 2.15804 10.2793 2.43934 10.5606C2.72064 10.8419 3.10218 11 3.5 11L13.293 11L10.146 7.85398C10.0521 7.76009 9.99937 7.63275 9.99937 7.49998C9.99937 7.3672 10.0521 7.23986 10.146 7.14598C10.2399 7.05209 10.3672 6.99935 10.5 6.99935C10.6328 6.99935 10.7601 7.05209 10.854 7.14598L14.854 11.146Z" fill="#777777"/>
</g>
<defs>
<clipPath id="clip0_48_540">
<rect width="16" height="16" fill="white" transform="translate(0 16) rotate(-90)"/>
</clipPath>
</defs>
</svg>
