<svg width="30" height="24" viewBox="0 0 30 24" fill="none" xmlns="http://www.w3.org/2000/svg">
<path fill-rule="evenodd" clip-rule="evenodd" d="M20.8007 2.10744H28.9286L30 3.16116V22.1281L28.9286 23.1818H1.07143L0 22.1281V3.16116L1.07143 2.10744H9.19929L11.0271 0.307686L11.7857 0H18.2143L18.9729 0.307686L20.8007 2.10744ZM2.14286 21.0744H27.8571V4.21488H20.3571L19.5986 3.90719L17.7707 2.10744H12.2293L10.4014 3.90719L9.64286 4.21488H2.14286V21.0744ZM5.35714 6.32231C5.07298 6.32231 4.80046 6.43333 4.59953 6.63094C4.3986 6.82855 4.28571 7.09657 4.28571 7.37603C4.28571 7.6555 4.3986 7.92351 4.59953 8.12113C4.80046 8.31874 5.07298 8.42975 5.35714 8.42975C5.6413 8.42975 5.91383 8.31874 6.11476 8.12113C6.31569 7.92351 6.42857 7.6555 6.42857 7.37603C6.42857 7.09657 6.31569 6.82855 6.11476 6.63094C5.91383 6.43333 5.6413 6.32231 5.35714 6.32231ZM15 8.42975C16.1366 8.42975 17.2267 8.87382 18.0305 9.66426C18.8342 10.4547 19.2857 11.5268 19.2857 12.6446C19.2857 13.7625 18.8342 14.8346 18.0305 15.625C17.2267 16.4154 16.1366 16.8595 15 16.8595C13.8634 16.8595 12.7733 16.4154 11.9695 15.625C11.1658 14.8346 10.7143 13.7625 10.7143 12.6446C10.7143 11.5268 11.1658 10.4547 11.9695 9.66426C12.7733 8.87382 13.8634 8.42975 15 8.42975ZM15 6.32231C13.295 6.32231 11.6599 6.98841 10.4543 8.17408C9.24872 9.35974 8.57143 10.9678 8.57143 12.6446C8.57143 14.3214 9.24872 15.9295 10.4543 17.1152C11.6599 18.3008 13.295 18.9669 15 18.9669C16.705 18.9669 18.3401 18.3008 19.5457 17.1152C20.7513 15.9295 21.4286 14.3214 21.4286 12.6446C21.4286 10.9678 20.7513 9.35974 19.5457 8.17408C18.3401 6.98841 16.705 6.32231 15 6.32231Z" fill="white"/>
</svg>
